{"title":"The Heat 2013 PPVrip Xvid Ac3-MiLLENiUM","uid":8802736,"size":1684012208,"categoryP":"video","categoryS":"movies","magnet":"?xt=urn:btih:bdb209265d094860a260301984cd55b9af2cf213&amp;dn=The+Heat+2013+PPVrip+Xvid+Ac3-MiLLENiUM&amp;tr=udp%3A%2F%2Ftracker.openbittorrent.com%3A80&amp;tr=udp%3A%2F%2Fopen.demonii.com%3A1337&amp;tr=udp%3A%2F%2Ftracker.coppersurfer.tk%3A6969&amp;tr=udp%3A%2F%2Fexodus.desync.com%3A6969","seeders":1,"leechers":0,"uploader":"TeX","files":4,"time":1376248787,"description":"General &lt;a href=&quot;\nhttp://www.imdb.com/title/tt2404463/&quot; rel=&quot;nofollow&quot; target=&quot;_NEW&quot;&gt;\nhttp://www.imdb.com/title/tt2404463/&lt;/a&gt;\nComplete name : The Heat 2013 PPVrip Xvid Ac3-MiLLENiUM.avi\nsource : SDTV V2 kingstoner ( which was actually HD 720)\nFormat : AVI\nFormat/Info : Audio Video Interleave\nFile size : 1.51 GiB\nDuration : 1h 52mn\nOverall bit rate : 1 930 Kbps\nWriting application : VirtualDubMod 1.5.10.2 (build 2540/release)\nWriting library : VirtualDubMod build 2540/release\n\nVideo\nID : 0\nFormat : MPEG-4 Visual\nFormat profile : Advanced Simple@L5\nFormat settings, BVOP : 2\nFormat settings, QPel : No\nFormat settings, GMC : No warppoints\nFormat settings, Matrix : Default (H.263)\nMuxing mode : Packed bitstream\nCodec ID : XVID\nCodec ID/Hint : XviD\nDuration : 1h 52mn\nBit rate : 1 694 Kbps\nWidth : 720 pixels\nHeight : 384 pixels\nDisplay aspect ratio : 1.875\nFrame rate : 30.000 fps\nColor space : YUV\nChroma subsampling : 4:2:0\nBit depth : 8 bits\nScan type : Progressive\nCompression mode : Lossy\nBits/(Pixel*Frame) : 0.204\nStream size : 1.33 GiB (88%)\nWriting library : XviD 64\n\nAudio\nID : 1\nFormat : AC-3\nFormat/Info : Audio Coding 3\nMode extension : CM (complete main)\nCodec ID : 2000\nDuration : 1h 52mn\nBit rate mode : Constant\nBit rate : 224 Kbps\nChannel(s) : 2 channels\nChannel positions : Front: L R\nSampling rate : 44.1 KHz\nBit depth : 16 bits\nCompression mode : Lossy\nStream size : 180 MiB (12%)\nAlignment : Split accross interleaves\nInterleave, duration : 33 ms (1.00 video frame)\nInterleave, preload duration : 500 ms\n\n\n\n[img]http://s16.postimg.org/7tjfenyat/The_Heat_2013_PPVrip_Xvid_Ac3_Mi_LLENi_UM_avi_snap.jpg[/img]\n\n[img]http://s16.postimg.org/4k0eugkth/The_Heat_2013_PPVrip_Xvid_Ac3_Mi_LLENi_UM_avi_snap.jpg[/img]\n[img]http://s16.postimg.org/fv32itrol/The_Heat_2013_PPVrip_Xvid_Ac3_Mi_LLENi_UM_avi_snap.jpg[/img]","torrent":{"xt":"urn:btih:bdb209265d094860a260301984cd55b9af2cf213","amp;dn":"The+Heat+2013+PPVrip+Xvid+Ac3-MiLLENiUM","amp;tr":["udp%3A%2F%2Ftracker.openbittorrent.com%3A80","udp%3A%2F%2Fopen.demonii.com%3A1337","udp%3A%2F%2Ftracker.coppersurfer.tk%3A6969","udp%3A%2F%2Fexodus.desync.com%3A6969"],"infoHash":"bdb209265d094860a260301984cd55b9af2cf213","infoHashBuffer":{"type":"Buffer","data":[189,178,9,38,93,9,72,96,162,96,48,25,132,205,85,185,175,44,242,19]},"announce":[],"urlList":[]}}